<svg width="800" height="800" viewBox="0 0 800 800" fill="none" xmlns="http://www.w3.org/2000/svg">
<rect width="800" height="800" rx="400" fill="url(#paint0_linear_3_6)"/>
<path d="M121.813 472.579C121.813 474.74 122.029 476.9 122.159 479.06L122.288 481.221C122.699 487.032 123.305 492.8 124.062 498.503C124.062 499 124.213 499.519 124.278 500.016C124.624 502.543 125.013 505.049 125.424 507.555L125.619 508.7C126.635 514.598 127.781 520.409 129.208 526.177L129.338 526.739C130.009 529.504 130.722 532.269 131.501 534.991V535.272C133.036 461.454 175.422 398.048 236.167 368.387L240.665 366.226C245.603 364.252 250.873 363.24 256.192 363.245C262.051 363.244 267.845 364.465 273.204 366.831C278.563 369.198 283.368 372.656 287.311 376.985C294.444 384.712 298.657 394.681 299.226 405.177C299.226 406.085 299.226 406.992 299.226 407.921C299.229 411.558 298.808 415.183 297.972 418.722C297.025 423.04 295.451 427.195 293.301 431.058C291.626 433.969 289.623 436.68 287.332 439.138C282.863 443.905 277.369 447.598 271.265 449.939C200.745 484.267 179.206 544.994 177.044 584.614C176.962 603.502 180.227 622.255 186.688 640.005L187.251 640.653C191.691 645.896 196.312 650.98 201.112 655.905L202.086 656.899C204.421 659.275 206.814 661.608 209.265 663.898L210.282 664.849C215.299 669.53 220.496 674.023 225.873 678.329C226.219 678.632 226.587 678.913 226.955 679.193C229.571 681.354 232.21 683.32 234.913 685.286L236.081 686.15C241.617 690.197 247.311 694.042 253.164 697.686L254.397 698.442C257.23 700.192 260.106 701.877 263.047 703.54L264.366 704.275C270.378 707.616 276.52 710.756 282.791 713.694L284.132 714.32C287.188 715.761 290.266 717.1 293.366 718.339L294.858 718.944C301.259 721.565 307.747 723.948 314.321 726.094L315.791 726.57C319.013 727.585 322.279 728.535 325.523 729.443L327.145 729.875C330.518 730.804 333.913 731.668 337.352 732.446C373.444 740.715 410.818 741.758 447.316 735.513L450.192 734.995L455.49 733.979L458.95 733.245C460.681 732.878 462.389 732.489 464.119 732.078L467.017 731.409C469.439 730.804 471.861 730.156 474.261 729.508L477.527 728.557L482.284 727.153L485.506 726.138C487.885 725.381 490.242 724.582 492.578 723.761L495.303 722.767L500.233 720.931L503.412 719.678L508.364 717.647L510.916 716.567C513.179 715.573 515.428 714.558 517.663 713.521L520.626 712.095C522.139 711.382 523.632 710.626 525.124 709.935L527.978 708.488C530.184 707.35 532.347 706.183 534.466 704.988L536.888 703.605C538.423 702.741 539.959 701.855 541.473 700.948C542.424 700.408 543.354 699.846 544.284 699.285C545.884 698.312 547.463 697.319 549.041 696.325L551.204 694.986C553.258 693.646 555.291 692.263 557.324 690.881L559.876 689.109L564.093 686.085L566.493 684.314C568.482 682.823 570.472 681.311 572.418 679.777L574.451 678.135L578.776 674.657L581.133 672.669C582.647 671.373 584.139 670.055 585.631 668.737L587.253 667.268C589.091 665.605 590.886 663.92 592.659 662.213L594.822 660.183C596.12 658.908 597.417 657.633 598.671 656.337C599.32 655.689 599.969 655.041 600.596 654.371C602.348 652.557 604.078 650.72 605.786 648.841C606.348 648.258 606.867 647.631 607.408 647.026C608.684 645.622 609.938 644.196 611.192 642.706L613.052 640.545C614.458 638.903 615.82 637.24 617.161 635.576L618.307 634.151C619.605 632.53 620.88 630.867 622.135 629.203C625.953 614.693 627.865 599.747 627.822 584.744C626.438 562.363 605.937 494.14 533.601 450.069C524.304 446.446 516.523 439.762 511.543 431.123C509.341 427.325 507.702 423.228 506.677 418.96C505.834 415.421 505.406 411.796 505.402 408.158C505.402 407.229 505.402 406.322 505.402 405.415C505.615 401.696 506.283 398.018 507.391 394.462C509.378 388.033 512.776 382.129 517.339 377.179C521.282 372.85 526.087 369.392 531.445 367.026C536.804 364.66 542.599 363.438 548.457 363.44C553.776 363.437 559.046 364.449 563.984 366.421L568.461 368.581C624.881 396.125 665.45 452.834 672.262 519.804C674.151 510.947 675.592 501.946 676.587 492.8L676.847 490.64C677.02 489.063 677.149 487.464 677.279 485.887L677.604 482.085L677.863 478.067C677.971 476.403 678.036 474.718 678.101 473.055C678.101 472.018 678.101 470.894 678.231 469.922C678.231 467.157 678.36 464.37 678.36 461.583C678.394 412.622 665.48 364.52 640.926 322.146C616.372 279.772 581.049 244.63 538.531 220.274C537.883 219.929 537.256 219.562 536.628 219.194C509.608 203.645 488.018 180.182 474.779 151.977C461.541 123.772 457.291 92.1861 462.605 61.4901C398.793 74.0752 341.213 108.095 299.434 157.896C257.654 207.698 234.192 270.281 232.945 335.247C214.595 315.939 204.382 290.321 204.421 263.697C178.172 289.527 157.335 320.321 143.126 354.281C128.917 388.242 121.62 424.689 121.661 461.497C121.661 464.37 121.661 467.265 121.813 470.138C121.813 470.938 121.813 471.759 121.813 472.579ZM402.336 407.489C430.319 407.489 453.004 420.796 453.004 437.193C453.004 453.59 430.319 466.898 402.336 466.898C374.352 466.898 351.668 453.612 351.668 437.193C351.668 420.775 374.439 407.489 402.422 407.489H402.336Z" fill="white"/>
<defs>
<linearGradient id="paint0_linear_3_6" x1="400" y1="0" x2="400" y2="800" gradientUnits="userSpaceOnUse">
<stop stop-color="#5691FF"/>
<stop offset="1" stop-color="#1566FE"/>
</linearGradient>
</defs>
</svg>
