<svg width="512" height="512" viewBox="0 0 512 512" fill="none" xmlns="http://www.w3.org/2000/svg">
<g clip-path="url(#clip0_6_2)">
<path d="M0 12C0 5.37258 5.37258 0 12 0H500C506.627 0 512 5.37258 512 12V500C512 506.627 506.627 512 500 512H12C5.37258 512 0 506.627 0 500V12Z" fill="#111111"/>
<path d="M37.8125 289.359C37.8125 282.589 39.5052 277.771 42.8906 274.906C46.276 271.781 51.7448 270.219 59.2969 270.219H63.2031C63.9844 274.385 64.8958 279.203 65.9375 284.672C66.9792 290.141 68.5417 295.74 70.625 301.469C72.7083 307.198 75.1823 312.536 78.0469 317.484C80.9115 322.172 84.4271 325.948 88.5938 328.812C88.8542 319.698 91.0677 310.974 95.2344 302.641C99.6615 294.047 105 286.495 111.25 279.984C117.76 273.214 124.792 267.615 132.344 263.188C140.156 258.5 147.839 255.375 155.391 253.812H163.984C176.484 253.812 187.161 256.677 196.016 262.406C204.87 267.875 212.161 275.167 217.891 284.281C223.88 293.135 228.438 303.292 231.562 314.75C234.688 326.208 237.031 337.927 238.594 349.906C240.417 361.625 241.458 373.083 241.719 384.281C242.24 395.219 242.5 404.594 242.5 412.406H213.984C212.422 396.781 210.469 381.807 208.125 367.484C207.344 361.755 206.302 355.766 205 349.516C203.698 343.005 202.266 337.016 200.703 331.547C199.141 325.818 197.448 320.609 195.625 315.922C193.802 310.974 191.719 306.807 189.375 303.422C188.333 302.38 186.901 300.948 185.078 299.125C183.516 297.302 181.823 295.479 180 293.656C178.177 291.833 176.484 290.271 174.922 288.969C173.359 287.667 172.448 287.016 172.188 287.016C164.375 284.932 157.604 286.495 151.875 291.703C146.146 296.651 141.068 303.422 136.641 312.016C132.214 320.609 128.568 330.375 125.703 341.312C123.099 352.25 120.885 362.797 119.062 372.953C117.24 382.849 115.938 391.573 115.156 399.125C114.375 406.417 113.854 410.844 113.594 412.406C107.083 417.094 100.964 418.526 95.2344 416.703C89.5052 414.62 84.0365 410.453 78.8281 404.203C73.8802 397.953 69.3229 390.141 65.1562 380.766C61.25 371.391 57.6042 361.495 54.2188 351.078C50.8333 340.401 47.7083 329.724 44.8438 319.047C42.2396 308.37 39.8958 298.474 37.8125 289.359ZM339.766 413.188C335.599 416.833 331.172 415.141 326.484 408.109C322.057 401.078 317.5 390.531 312.812 376.469C308.125 362.146 303.438 345.089 298.75 325.297C294.323 305.505 290.026 284.542 285.859 262.406C281.693 240.271 277.656 217.875 273.75 195.219C270.104 172.302 266.849 150.818 263.984 130.766C263.984 127.12 263.854 123.474 263.594 119.828C263.594 115.922 263.984 112.406 264.766 109.281C265.807 105.896 267.5 102.901 269.844 100.297C272.448 97.6927 276.354 95.7396 281.562 94.4375C282.083 94.1771 283.125 94.4375 284.688 95.2188C286.51 95.7396 288.333 96.5208 290.156 97.5625C291.979 98.3438 293.542 99.2552 294.844 100.297C296.406 101.339 297.448 102.25 297.969 103.031C294.583 151.729 300.182 199.125 314.766 245.219C315.547 244.438 317.63 241.833 321.016 237.406C324.401 232.719 328.698 227.38 333.906 221.391C339.115 215.141 344.974 208.5 351.484 201.469C358.255 194.438 365.286 187.927 372.578 181.938C379.87 175.948 387.161 171 394.453 167.094C401.745 162.927 408.776 160.844 415.547 160.844C419.453 160.844 423.229 161.755 426.875 163.578C430.781 165.401 432.734 168.917 432.734 174.125C432.734 174.646 432.604 175.427 432.344 176.469C432.083 177.25 431.953 177.901 431.953 178.422C427.786 182.068 421.406 187.667 412.812 195.219C404.479 202.771 395.625 211.234 386.25 220.609C376.875 229.984 367.891 239.75 359.297 249.906C350.703 260.062 344.193 269.698 339.766 278.812C338.984 280.375 338.724 281.807 338.984 283.109C339.245 284.151 339.505 285.453 339.766 287.016C342.63 288.057 347.188 289.62 353.438 291.703C359.688 293.786 366.589 296.26 374.141 299.125C381.693 301.729 389.766 304.594 398.359 307.719C406.953 310.583 415.026 313.448 422.578 316.312C430.13 319.177 436.901 321.781 442.891 324.125C449.141 326.208 453.828 327.771 456.953 328.812C460.599 330.375 463.594 331.417 465.938 331.938C468.281 332.458 470.104 333.24 471.406 334.281C472.708 335.062 473.62 336.234 474.141 337.797C474.661 339.359 474.922 341.703 474.922 344.828C474.922 352.38 473.099 357.328 469.453 359.672C465.807 362.016 460.599 363.188 453.828 363.188C433.776 361.885 414.115 357.719 394.844 350.688C375.573 343.396 356.042 334.672 336.25 324.516C335.469 329.464 335.729 335.193 337.031 341.703C338.594 348.214 340.417 354.724 342.5 361.234C344.583 367.745 346.536 374.125 348.359 380.375C350.443 386.625 351.615 392.224 351.875 397.172C352.396 402.12 351.875 406.026 350.312 408.891C348.75 411.755 345.234 413.188 339.766 413.188Z" fill="#FEFEFE"/>
</g>
<defs>
<clipPath id="clip0_6_2">
<rect width="512" height="512" fill="white"/>
</clipPath>
</defs>
</svg>
