<svg width="800" height="800" viewBox="0 0 800 800" fill="none" xmlns="http://www.w3.org/2000/svg">
<g clip-path="url(#clip0_2_4)">
<path fill-rule="evenodd" clip-rule="evenodd" d="M609.375 0C725 0 800 75 800 190.625V609.375C800 725 725 800 609.375 800H190.625C75 800 0 725 0 609.375V190.625C0 75 75 0 190.625 0H609.375Z" fill="url(#paint0_linear_2_4)"/>
<path d="M72.7188 428.539C72.7188 418.383 75.2578 411.156 80.3359 406.859C85.4141 402.172 93.6172 399.828 104.945 399.828H110.805C111.977 406.078 113.344 413.305 114.906 421.508C116.469 429.711 118.812 438.109 121.938 446.703C125.062 455.297 128.773 463.305 133.07 470.727C137.367 477.758 142.641 483.422 148.891 487.719C149.281 474.047 152.602 460.961 158.852 448.461C165.492 435.57 173.5 424.242 182.875 414.477C192.641 404.32 203.188 395.922 214.516 389.281C226.234 382.25 237.758 377.562 249.086 375.219H261.977C280.727 375.219 296.742 379.516 310.023 388.109C323.305 396.312 334.242 407.25 342.836 420.922C351.82 434.203 358.656 449.438 363.344 466.625C368.031 483.812 371.547 501.391 373.891 519.359C376.625 536.938 378.188 554.125 378.578 570.922C379.359 587.328 379.75 601.391 379.75 613.109H336.977C334.633 589.672 331.703 567.211 328.188 545.727C327.016 537.133 325.453 528.148 323.5 518.773C321.547 509.008 319.398 500.023 317.055 491.82C314.711 483.227 312.172 475.414 309.438 468.383C306.703 460.961 303.578 454.711 300.062 449.633C298.5 448.07 296.352 445.922 293.617 443.188C291.273 440.453 288.734 437.719 286 434.984C283.266 432.25 280.727 429.906 278.383 427.953C276.039 426 274.672 425.023 274.281 425.023C262.562 421.898 252.406 424.242 243.812 432.055C235.219 439.477 227.602 449.633 220.961 462.523C214.32 475.414 208.852 490.062 204.555 506.469C200.648 522.875 197.328 538.695 194.594 553.93C191.859 568.773 189.906 581.859 188.734 593.188C187.562 604.125 186.781 610.766 186.391 613.109C176.625 620.141 167.445 622.289 158.852 619.555C150.258 616.43 142.055 610.18 134.242 600.805C126.82 591.43 119.984 579.711 113.734 565.648C107.875 551.586 102.406 536.742 97.3281 521.117C92.25 505.102 87.5625 489.086 83.2656 473.07C79.3594 457.055 75.8438 442.211 72.7188 428.539ZM525.648 614.281C519.398 619.75 512.758 617.211 505.727 606.664C499.086 596.117 492.25 580.297 485.219 559.203C478.188 537.719 471.156 512.133 464.125 482.445C457.484 452.758 451.039 421.312 444.789 388.109C438.539 354.906 432.484 321.312 426.625 287.328C421.156 252.953 416.273 220.727 411.977 190.648C411.977 185.18 411.781 179.711 411.391 174.242C411.391 168.383 411.977 163.109 413.148 158.422C414.711 153.344 417.25 148.852 420.766 144.945C424.672 141.039 430.531 138.109 438.344 136.156C439.125 135.766 440.688 136.156 443.031 137.328C445.766 138.109 448.5 139.281 451.234 140.844C453.969 142.016 456.312 143.383 458.266 144.945C460.609 146.508 462.172 147.875 462.953 149.047C457.875 222.094 466.273 293.188 488.148 362.328C489.32 361.156 492.445 357.25 497.523 350.609C502.602 343.578 509.047 335.57 516.859 326.586C524.672 317.211 533.461 307.25 543.227 296.703C553.383 286.156 563.93 276.391 574.867 267.406C585.805 258.422 596.742 251 607.68 245.141C618.617 238.891 629.164 235.766 639.32 235.766C645.18 235.766 650.844 237.133 656.312 239.867C662.172 242.602 665.102 247.875 665.102 255.688C665.102 256.469 664.906 257.641 664.516 259.203C664.125 260.375 663.93 261.352 663.93 262.133C657.68 267.602 648.109 276 635.219 287.328C622.719 298.656 609.438 311.352 595.375 325.414C581.312 339.477 567.836 354.125 554.945 369.359C542.055 384.594 532.289 399.047 525.648 412.719C524.477 415.062 524.086 417.211 524.477 419.164C524.867 420.727 525.258 422.68 525.648 425.023C529.945 426.586 536.781 428.93 546.156 432.055C555.531 435.18 565.883 438.891 577.211 443.188C588.539 447.094 600.648 451.391 613.539 456.078C626.43 460.375 638.539 464.672 649.867 468.969C661.195 473.266 671.352 477.172 680.336 480.688C689.711 483.812 696.742 486.156 701.43 487.719C706.898 490.062 711.391 491.625 714.906 492.406C718.422 493.188 721.156 494.359 723.109 495.922C725.062 497.094 726.43 498.852 727.211 501.195C727.992 503.539 728.383 507.055 728.383 511.742C728.383 523.07 725.648 530.492 720.18 534.008C714.711 537.523 706.898 539.281 696.742 539.281C666.664 537.328 637.172 531.078 608.266 520.531C579.359 509.594 550.062 496.508 520.375 481.273C519.203 488.695 519.594 497.289 521.547 507.055C523.891 516.82 526.625 526.586 529.75 536.352C532.875 546.117 535.805 555.688 538.539 565.062C541.664 574.438 543.422 582.836 543.812 590.258C544.594 597.68 543.812 603.539 541.469 607.836C539.125 612.133 533.852 614.281 525.648 614.281Z" fill="#111111"/>
</g>
<defs>
<linearGradient id="paint0_linear_2_4" x1="400" y1="0" x2="400" y2="800" gradientUnits="userSpaceOnUse">
<stop stop-color="white"/>
<stop offset="1" stop-color="#FEFEFE"/>
</linearGradient>
<clipPath id="clip0_2_4">
<rect width="800" height="800" fill="white"/>
</clipPath>
</defs>
</svg>
