<svg width="800" height="800" viewBox="0 0 800 800" fill="none" xmlns="http://www.w3.org/2000/svg">
<g clip-path="url(#clip0_9_12)">
<path d="M71.7188 451.539C71.7188 441.383 74.2578 434.156 79.3359 429.859C84.4141 425.172 92.6172 422.828 103.945 422.828H109.805C110.977 429.078 112.344 436.305 113.906 444.508C115.469 452.711 117.812 461.109 120.938 469.703C124.062 478.297 127.773 486.305 132.07 493.727C136.367 500.758 141.641 506.422 147.891 510.719C148.281 497.047 151.602 483.961 157.852 471.461C164.492 458.57 172.5 447.242 181.875 437.477C191.641 427.32 202.188 418.922 213.516 412.281C225.234 405.25 236.758 400.562 248.086 398.219H260.977C279.727 398.219 295.742 402.516 309.023 411.109C322.305 419.312 333.242 430.25 341.836 443.922C350.82 457.203 357.656 472.438 362.344 489.625C367.031 506.812 370.547 524.391 372.891 542.359C375.625 559.938 377.188 577.125 377.578 593.922C378.359 610.328 378.75 624.391 378.75 636.109H335.977C333.633 612.672 330.703 590.211 327.188 568.727C326.016 560.133 324.453 551.148 322.5 541.773C320.547 532.008 318.398 523.023 316.055 514.82C313.711 506.227 311.172 498.414 308.438 491.383C305.703 483.961 302.578 477.711 299.062 472.633C297.5 471.07 295.352 468.922 292.617 466.188C290.273 463.453 287.734 460.719 285 457.984C282.266 455.25 279.727 452.906 277.383 450.953C275.039 449 273.672 448.023 273.281 448.023C261.562 444.898 251.406 447.242 242.812 455.055C234.219 462.477 226.602 472.633 219.961 485.523C213.32 498.414 207.852 513.062 203.555 529.469C199.648 545.875 196.328 561.695 193.594 576.93C190.859 591.773 188.906 604.859 187.734 616.188C186.562 627.125 185.781 633.766 185.391 636.109C175.625 643.141 166.445 645.289 157.852 642.555C149.258 639.43 141.055 633.18 133.242 623.805C125.82 614.43 118.984 602.711 112.734 588.648C106.875 574.586 101.406 559.742 96.3281 544.117C91.25 528.102 86.5625 512.086 82.2656 496.07C78.3594 480.055 74.8438 465.211 71.7188 451.539ZM524.648 637.281C518.398 642.75 511.758 640.211 504.727 629.664C498.086 619.117 491.25 603.297 484.219 582.203C477.188 560.719 470.156 535.133 463.125 505.445C456.484 475.758 450.039 444.312 443.789 411.109C437.539 377.906 431.484 344.312 425.625 310.328C420.156 275.953 415.273 243.727 410.977 213.648C410.977 208.18 410.781 202.711 410.391 197.242C410.391 191.383 410.977 186.109 412.148 181.422C413.711 176.344 416.25 171.852 419.766 167.945C423.672 164.039 429.531 161.109 437.344 159.156C438.125 158.766 439.688 159.156 442.031 160.328C444.766 161.109 447.5 162.281 450.234 163.844C452.969 165.016 455.312 166.383 457.266 167.945C459.609 169.508 461.172 170.875 461.953 172.047C456.875 245.094 465.273 316.188 487.148 385.328C488.32 384.156 491.445 380.25 496.523 373.609C501.602 366.578 508.047 358.57 515.859 349.586C523.672 340.211 532.461 330.25 542.227 319.703C552.383 309.156 562.93 299.391 573.867 290.406C584.805 281.422 595.742 274 606.68 268.141C617.617 261.891 628.164 258.766 638.32 258.766C644.18 258.766 649.844 260.133 655.312 262.867C661.172 265.602 664.102 270.875 664.102 278.688C664.102 279.469 663.906 280.641 663.516 282.203C663.125 283.375 662.93 284.352 662.93 285.133C656.68 290.602 647.109 299 634.219 310.328C621.719 321.656 608.438 334.352 594.375 348.414C580.312 362.477 566.836 377.125 553.945 392.359C541.055 407.594 531.289 422.047 524.648 435.719C523.477 438.062 523.086 440.211 523.477 442.164C523.867 443.727 524.258 445.68 524.648 448.023C528.945 449.586 535.781 451.93 545.156 455.055C554.531 458.18 564.883 461.891 576.211 466.188C587.539 470.094 599.648 474.391 612.539 479.078C625.43 483.375 637.539 487.672 648.867 491.969C660.195 496.266 670.352 500.172 679.336 503.688C688.711 506.812 695.742 509.156 700.43 510.719C705.898 513.062 710.391 514.625 713.906 515.406C717.422 516.188 720.156 517.359 722.109 518.922C724.062 520.094 725.43 521.852 726.211 524.195C726.992 526.539 727.383 530.055 727.383 534.742C727.383 546.07 724.648 553.492 719.18 557.008C713.711 560.523 705.898 562.281 695.742 562.281C665.664 560.328 636.172 554.078 607.266 543.531C578.359 532.594 549.062 519.508 519.375 504.273C518.203 511.695 518.594 520.289 520.547 530.055C522.891 539.82 525.625 549.586 528.75 559.352C531.875 569.117 534.805 578.688 537.539 588.062C540.664 597.438 542.422 605.836 542.812 613.258C543.594 620.68 542.812 626.539 540.469 630.836C538.125 635.133 532.852 637.281 524.648 637.281Z" fill="#FEFEFE"/>
</g>
<defs>
<clipPath id="clip0_9_12">
<rect width="800" height="800" fill="white"/>
</clipPath>
</defs>
</svg>
